<mxfile host="app.diagrams.net" modified="2024-05-27T11:48:08.470Z" agent="Mozilla/5.0 (Macintosh; Intel Mac OS X 10_15_7) AppleWebKit/537.36 (KHTML, like Gecko) Chrome/124.0.0.0 Safari/537.36" version="24.0.5" etag="YsAy1C4-0V9fhlGDvQkC" type="github">
  <diagram name="第 1 页" id="NTS4oeZzGXRgFLz2QW7M">
    <mxGraphModel>
      <root>
        <mxCell id="0" />
        <mxCell id="1" parent="0" />
      </root>
    </mxGraphModel>
  </diagram>
</mxfile>
